<svg width="629" height="128" viewBox="0 0 629 128" fill="none" xmlns="http://www.w3.org/2000/svg">
<g clip-path="url(#clip0_1634_25425)">
<path d="M83.3965 62.3414V104.627H65.0426V67.3871C65.0426 65.0354 64.475 62.918 63.3487 61.0349C62.2224 59.1517 60.7087 57.656 58.8255 56.5478C56.9424 55.4395 54.843 54.8809 52.5453 54.8809C50.2477 54.8809 48.1303 55.4395 46.2291 56.5478C44.319 57.656 42.8142 59.1517 41.706 61.0349C40.5977 62.918 40.0391 65.0354 40.0391 67.3871V104.627H21.6851L21.6221 38.1308H39.976L40.0391 43.0504C42.2556 40.9239 44.8596 39.257 47.851 38.0587C50.8424 36.8603 54.005 36.2656 57.3298 36.2656C62.1593 36.2656 66.5383 37.437 70.4578 39.7886C74.3863 42.1403 77.5128 45.2759 79.8645 49.1954C82.2162 53.1239 83.3875 57.4938 83.3875 62.3324L83.3965 62.3414Z" fill="#F79800"/>
<path d="M212.503 104.636H188.761L164.56 38.1406H184.112L200.601 83.5524L217.089 38.1406H236.705L212.503 104.636Z" fill="#F79800"/>
<path d="M294.878 38.1284H313.232V104.624H294.815L293.95 97.7133C292.22 100.281 290.003 102.363 287.3 103.966C284.597 105.561 281.426 106.363 277.794 106.363C272.83 106.363 268.198 105.435 263.901 103.57C259.603 101.705 255.809 99.1369 252.53 95.8572C249.25 92.5775 246.691 88.7751 244.853 84.4502C243.015 80.1253 242.096 75.485 242.096 70.5203C242.096 65.5556 242.961 61.3478 244.691 57.2211C246.421 53.0944 248.853 49.4633 252.007 46.3187C255.152 43.1741 258.774 40.7143 262.873 38.9393C266.973 37.1643 271.397 36.2812 276.137 36.2812C280.218 36.2812 283.885 37.1462 287.138 38.8762C290.4 40.6062 293.247 42.8047 295.68 45.4627L294.878 38.1464V38.1284ZM277.326 88.7301C280.335 88.7301 283.065 87.9552 285.507 86.4054C287.94 84.8557 289.877 82.7563 291.292 80.1162C292.706 77.4762 293.418 74.5659 293.418 71.3763C293.418 68.1866 292.706 65.2133 291.292 62.6003C289.877 59.9873 287.94 57.9059 285.507 56.3471C283.065 54.7974 280.344 54.0225 277.326 54.0225C274.307 54.0225 271.496 54.7974 269.018 56.3471C266.532 57.8969 264.567 59.9963 263.099 62.6363C261.639 65.2763 260.909 68.1866 260.909 71.3763C260.909 74.5659 261.648 77.4852 263.135 80.1162C264.621 82.7563 266.604 84.8466 269.081 86.4054C271.559 87.9642 274.307 88.7301 277.326 88.7301Z" fill="#F79800"/>
<path d="M326.591 104.627L326.528 38.1308H344.882L344.945 43.0504C347.162 40.9239 349.766 39.257 352.757 38.0587C355.749 36.8603 358.911 36.2656 362.236 36.2656C364.678 36.2656 367.111 36.617 369.552 37.3288L362.308 55.881C360.713 55.2142 359.091 54.8809 357.452 54.8809C355.145 54.8809 353.037 55.4395 351.135 56.5478C349.225 57.656 347.721 59.1517 346.612 61.0349C345.504 62.918 344.945 65.0354 344.945 67.3871V104.627H326.591Z" fill="#F79800"/>
<path d="M427.247 80.2997V38.1406H445.601V75.2449C445.601 77.5966 446.169 79.714 447.295 81.5972C448.421 83.4803 449.944 84.976 451.854 86.0843C453.755 87.1926 455.846 87.7422 458.107 87.7422C460.369 87.7422 462.513 87.1926 464.423 86.0843C466.334 84.976 467.838 83.4803 468.947 81.5972C470.055 79.714 470.614 77.5966 470.614 75.2449V38.1406H488.967L489.031 104.636H470.677L470.614 99.5817C468.397 101.708 465.793 103.375 462.802 104.573C459.81 105.772 456.648 106.366 453.323 106.366C448.538 106.366 444.168 105.195 440.222 102.843C436.275 100.492 433.131 97.3562 430.779 93.4367C428.427 89.5172 427.256 85.1382 427.256 80.3087L427.247 80.2997Z" fill="#F79800"/>
<path d="M502.31 104.627V38.1308H520.664V43.0504C522.925 40.9239 525.538 39.257 528.511 38.0587C531.485 36.8603 534.629 36.2656 537.954 36.2656C542.477 36.2656 546.631 37.3108 550.424 39.3922C554.218 41.4736 557.263 44.2487 559.57 47.6997C561.922 44.2397 564.976 41.4736 568.742 39.3922C572.509 37.3108 576.635 36.2656 581.113 36.2656C585.943 36.2656 590.322 37.437 594.25 39.7886C598.17 42.1403 601.305 45.2759 603.657 49.1954C606.009 53.1239 607.18 57.4938 607.18 62.3324V104.618H588.826V67.3781C588.826 65.0715 588.259 62.9811 587.132 61.0889C586.006 59.2058 584.501 57.7011 582.645 56.5658C580.78 55.4395 578.699 54.8718 576.392 54.8718C574.085 54.8718 571.995 55.4305 570.112 56.5387C568.229 57.647 566.724 59.1427 565.589 61.0259C564.462 62.909 563.895 65.0264 563.895 67.3781V104.618H545.541V67.3781C545.541 65.0264 544.991 62.909 543.883 61.0259C542.775 59.1427 541.279 57.647 539.396 56.5387C537.513 55.4305 535.413 54.8718 533.116 54.8718C530.818 54.8718 528.782 55.4395 526.899 56.5658C525.016 57.6921 523.511 59.2058 522.375 61.0889C521.249 62.9721 520.682 65.0715 520.682 67.3781V104.618H502.328L502.31 104.627Z" fill="#F79800"/>
<path d="M412.318 88.6122C409.975 89.3961 407.362 89.9187 405.019 89.9187C399.541 89.9187 396.937 87.0534 396.937 81.3139V55.7607H413.886V39.8576H396.937V21.5938L379.728 25.2429V84.4314C379.728 91.4685 381.557 96.6854 385.206 100.596C388.855 104.245 394.072 106.335 400.848 106.335C403.19 106.335 405.542 106.074 408.146 105.813C410.75 105.29 412.84 104.768 414.922 103.984L412.318 88.6032V88.6122Z" fill="#F79800"/>
<path d="M110.73 77.3021C110.631 76.9597 110.514 76.6354 110.433 76.284C109.865 73.653 109.991 70.9679 110.811 68.2468C111.631 65.5257 113.145 63.0388 115.37 60.8133C117.506 58.6779 119.921 57.1822 122.633 56.3262C125.345 55.4612 128.048 55.281 130.742 55.7856C131.147 55.8577 131.535 55.9838 131.931 56.1009L145.645 42.3873C143.771 41.1529 141.78 40.1347 139.671 39.3328C135.535 37.765 131.256 37.0442 126.831 37.1703C122.407 37.2965 118.092 38.2426 113.875 40.0176C109.658 41.7926 105.829 44.3966 102.378 47.8475C97.8364 52.3887 94.7459 57.5966 93.115 63.4623C91.4842 69.328 91.331 75.1487 92.6645 80.9333C93.5025 84.5824 95.0162 87.9072 97.0435 90.9797L110.703 77.3201L110.73 77.3021Z" fill="#F79800"/>
<path d="M158.753 79.176C160.402 73.3013 160.555 67.4717 159.221 61.6871C158.383 58.0379 156.87 54.7131 154.842 51.6406L141.147 65.3362C141.246 65.6786 141.363 66.012 141.426 66.3634C141.958 69.0305 141.804 71.7426 140.957 74.4997C140.11 77.2568 138.606 79.7167 136.443 81.8791C134.281 84.0416 131.947 85.4652 129.253 86.3482C126.559 87.2222 123.874 87.4024 121.189 86.8888C120.756 86.8077 120.351 86.6726 119.936 86.5464L106.259 100.224C108.151 101.467 110.142 102.495 112.26 103.297C116.386 104.846 120.648 105.558 125.072 105.432C129.487 105.306 133.803 104.369 138.002 102.612C142.201 100.855 146.012 98.2688 149.427 94.8539C154.004 90.2767 157.113 85.0507 158.762 79.176H158.753Z" fill="#A81944"/>
</g>
<defs>
<clipPath id="clip0_1634_25425">
<rect width="585.551" height="84.7507" fill="white" transform="translate(21.625 21.625)"/>
</clipPath>
</defs>
</svg>
